LG_Stand_to_Walk02																		
version=1																		
nRows=105																		
nColumns=19																		
inDegrees=yes																		
endheader																		
time	ground_force2_vx	ground_force2_vy	ground_force2_vz	ground_force2_px	ground_force2_py	ground_force2_pz	ground_torque2_x	ground_torque2_y	ground_torque2_z	ground_force1_vx	ground_force1_vy	ground_force1_vz	ground_force1_px	ground_force1_py	ground_force1_pz	ground_torque1_x	ground_torque1_y	ground_torque1_z
5.985	-46.172966	736.446167	102.712654	0.199085	0	-0.290097	1.00E-06	1.761539	9.00E-06	0	0	0	-0.13	0	0.305	0	0	0
5.986	-46.717201	736.446167	103.10434	0.199287	0	-0.290081	1.00E-06	1.747977	9.00E-06	0	0	0	-0.13	0	0.305	0	0	0
5.987	-46.877953	736.638306	103.495918	0.199257	0	-0.28996	-2.00E-06	1.806256	9.00E-06	0	0	0	-0.13	0	0.305	0	0	0
5.988	-47.190079	736.634399	103.965858	0.199257	0	-0.289939	-2.00E-06	1.806256	6.00E-06	0	0	0	-0.13	0	0.305	0	0	0
5.989	-47.346504	736.638306	103.966064	0.199257	0	-0.289471	1.50E-05	1.806256	5.00E-06	0	0	0	-0.13	0	0.305	0	0	0
5.99	-47.346504	737.175232	103.965858	0.199103	0	-0.289061	1.50E-05	1.820375	5.00E-06	0	0	0	-0.13	0	0.305	0	0	0
5.991	-47.580055	737.860291	104.357674	0.199259	0	-0.289045	1.10E-05	1.704248	7.00E-06	0	0	0	-0.13	0	0.305	0	0	0
5.992	-47.500763	737.861816	104.357674	0.199206	0	-0.289045	1.00E-05	1.820375	7.00E-06	0	0	0	-0.13	0	0.305	0	0	0
5.993	-47.969307	739.255859	104.749207	0.199362	0	-0.288351	1.00E-05	1.704248	6.00E-06	0	0	0	-0.13	0	0.305	0	0	0
5.994	-48.122124	739.255859	104.749245	0.199269	0	-0.288202	4.00E-06	1.824226	6.00E-06	0	0	0	-0.13	0	0.305	0	0	0
5.995	-48.20647	739.776917	104.827415	0.199362	0	-0.287851	2.10E-05	1.825806	4.00E-06	0	0	0	-0.13	0	0.305	0	0	0
5.996	-48.362892	738.76709	105.219391	0.19949	0	-0.28768	4.00E-06	1.838511	4.00E-06	0	0	0	-0.13	0	0.305	0	0	0
5.997	-48.362892	740.659485	105.140656	0.19949	0	-0.287851	1.50E-05	1.877761	7.00E-06	0	0	0	-0.13	0	0.305	0	0	0
5.998	-48.36145	741.532043	105.4543	0.19949	0	-0.287174	1.50E-05	1.838511	7.00E-06	0	0	0	-0.13	0	0.305	0	0	0
5.999	-48.36145	741.532043	105.532593	0.199627	0	-0.286937	1.50E-05	1.827906	9.00E-06	0	0	0	-0.13	0	0.305	0	0	0
6	-48.907852	741.532043	105.689255	0.199735	0	-0.285938	9.00E-06	1.770597	2.00E-06	0	0	0	-0.13	0	0.305	0	0	0
6.001	-49.066437	742.93335	106.002579	0.199755	0	-0.285747	6.00E-06	1.810568	7.00E-06	0	0	0	-0.13	0	0.305	0	0	0
6.002	-49.222137	742.93335	106.002495	0.199813	0	-0.285736	9.00E-06	1.757935	7.00E-06	0	0	0	-0.13	0	0.305	0	0	0
6.003	-49.222137	745.020142	106.002655	0.199813	0	-0.285306	6.00E-06	1.808583	1.10E-05	0	0	0	-0.13	0	0.305	0	0	0
6.004	-49.222137	744.684937	106.002655	0.200352	0	-0.284831	1.10E-05	1.757935	1.50E-05	0	0	0	-0.13	0	0.305	0	0	0
6.005	-49.692856	744.684937	106.39447	0.200352	0	-0.28471	2.80E-05	1.672032	1.50E-05	0	0	0	-0.13	0	0.305	0	0	0
6.006	-49.926407	744.684937	106.55101	0.200352	0	-0.284606	2.80E-05	1.672032	1.40E-05	0	0	0	-0.13	0	0.305	0	0	0
6.007	-50.477135	744.862427	106.864372	0.200089	0	-0.284358	2.30E-05	1.763138	1.20E-05	0	0	0	-0.13	0	0.305	0	0	0
6.008	-50.477135	746.08667	106.86441	0.200378	0	-0.283989	2.30E-05	1.763138	2.00E-06	0	0	0	-0.13	0	0.305	0	0	0
6.009	-50.477135	746.08667	107.021034	0.200378	0	-0.28389	1.40E-05	1.848452	1.00E-06	0	0	0	-0.13	0	0.305	0	0	0
6.01	-50.945686	746.08667	106.942863	0.20042	0	-0.283577	1.80E-05	1.731708	1.00E-06	0	0	0	-0.13	0	0.305	0	0	0
6.011	-51.025703	746.626831	107.099243	0.200526	0	-0.283451	1.80E-05	1.813637	6.00E-06	0	0	0	-0.13	0	0.305	0	0	0
6.012	-51.025703	746.62561	107.726051	0.200524	0	-0.282695	1.80E-05	1.813637	1.00E-05	0	0	0	-0.13	0	0.305	0	0	0
6.013	-51.028587	746.62561	107.804504	0.200634	0	-0.282504	1.40E-05	1.813637	6.00E-06	0	0	0	-0.13	0	0.305	0	0	0
6.014	-51.028587	746.128845	107.804504	0.200835	0	-0.282165	1.40E-05	1.712367	1.00E-05	0	0	0	-0.13	0	0.305	0	0	0
6.015	-51.182125	745.099365	108.117905	0.200835	0	-0.281628	1.40E-05	1.685944	6.00E-06	0	0	0	-0.13	0	0.305	0	0	0
6.016	-51.182125	745.789856	107.961243	0.200634	0	-0.281472	2.30E-05	1.685944	3.00E-06	0	0	0	-0.13	0	0.305	0	0	0
6.017	-51.182125	745.789856	108.274689	0.200634	0	-0.281046	2.30E-05	1.7659	3.00E-06	0	0	0	-0.13	0	0.305	0	0	0
6.018	-51.418564	745.789856	108.50972	0.200743	0	-0.280889	1.60E-05	1.7659	4.00E-06	0	0	0	-0.13	0	0.305	0	0	0
6.019	-50.717186	744.094971	108.588043	0.201077	0	-0.279954	7.00E-06	1.687155	1.00E-05	0	0	0	-0.13	0	0.305	0	0	0
6.02	-51.108604	744.094971	108.50972	0.201077	0	-0.279806	7.00E-06	1.687155	1.00E-05	0	0	0	-0.13	0	0.305	0	0	0
6.021	-51.108604	746.866089	108.588165	0.201094	0	-0.279531	7.00E-06	1.687155	1.10E-05	0	0	0	-0.13	0	0.305	0	0	0
6.022	-51.108604	747.370972	108.82328	0.201138	0	-0.278714	1.00E-06	1.688986	9.00E-06	0	0	0	-0.13	0	0.305	0	0	0
6.023	-51.266472	747.214417	108.82328	0.201204	0	-0.278452	1.00E-06	1.665615	1.20E-05	0	0	0	-0.13	0	0.305	0	0	0
6.024	-51.348652	747.571533	108.745026	0.201434	0	-0.278363	1.00E-06	1.688986	1.00E-05	0	0	0	-0.13	0	0.305	0	0	0
6.025	-51.348652	747.932251	108.588127	0.201625	0	-0.277474	1.00E-05	1.639868	1.00E-05	0	0	0	-0.13	0	0.305	0	0	0
6.026	-51.348652	747.932251	108.588127	0.20175	0	-0.277296	1.60E-05	1.766685	1.00E-05	0	0	0	-0.13	0	0.305	0	0	0
6.027	-51.818642	747.598999	108.509872	0.20175	0	-0.27702	1.60E-05	1.705462	1.20E-05	0	0	0	-0.13	0	0.305	0	0	0
6.028	-51.97723	747.598999	108.666702	0.20175	0	-0.276928	1.60E-05	1.727889	1.20E-05	0	0	0	-0.13	0	0.305	0	0	0
6.029	-52.133656	749.342163	108.666702	0.201735	0	-0.276928	2.00E-06	1.727889	9.00E-06	0	0	0	-0.13	0	0.305	0	0	0
6.03	-52.212227	749.839294	108.666702	0.201763	0	-0.275931	2.00E-06	1.727889	6.00E-06	0	0	0	-0.13	0	0.305	0	0	0
6.031	-52.682945	750.212769	108.979858	0.202027	0	-0.275653	2.00E-06	1.700352	9.00E-06	0	0	0	-0.13	0	0.305	0	0	0
6.032	-52.682945	750.39563	109.136765	0.202105	0	-0.275259	1.20E-05	1.656922	6.00E-06	0	0	0	-0.13	0	0.305	0	0	0
6.033	-52.761513	750.39563	109.136803	0.202127	0	-0.274814	2.30E-05	1.668536	9.00E-06	0	0	0	-0.13	0	0.305	0	0	0
6.034	-52.760796	750.39563	109.215134	0.202127	0	-0.274669	2.30E-05	1.648657	9.00E-06	0	0	0	-0.13	0	0.305	0	0	0
6.035	-52.760796	749.719116	109.372162	0.202127	0	-0.274024	2.10E-05	1.640138	9.00E-06	0	0	0	-0.13	0	0.305	0	0	0
6.036	-52.760796	749.18988	109.372162	0.202312	0	-0.273621	1.00E-06	1.640138	8.00E-06	0	0	0	-0.13	0	0.305	0	0	0
6.037	-52.769447	749.367676	109.607224	0.202312	0	-0.273464	0.00E+00	1.692956	8.00E-06	0	0	0	-0.13	0	0.305	0	0	0
6.038	-52.769447	749.367676	109.763847	0.20239	0	-0.273223	1.00E-06	1.692956	1.20E-05	0	0	0	-0.13	0	0.305	0	0	0
6.039	-52.769447	749.367676	109.607346	0.202231	0	-0.272405	1.40E-05	1.675468	1.20E-05	0	0	0	-0.13	0	0.305	0	0	0
6.04	-53.006611	749.747314	109.763847	0.202606	0	-0.271964	1.40E-05	1.634107	9.00E-06	0	0	0	-0.13	0	0.305	0	0	0
6.041	-53.006611	748.868652	110.155907	0.202606	0	-0.271121	1.10E-05	1.598428	9.00E-06	0	0	0	-0.13	0	0.305	0	0	0
6.042	-52.693764	748.209106	110.312607	0.202721	0	-0.270989	9.00E-06	1.598428	1.00E-05	0	0	0	-0.13	0	0.305	0	0	0
6.043	-52.693764	748.209106	110.782745	0.202883	0	-0.270536	1.10E-05	1.598897	1.00E-05	0	0	0	-0.13	0	0.305	0	0	0
6.044	-52.623852	748.5802	110.782745	0.202828	0	-0.269612	1.70E-05	1.7252	9.00E-06	0	0	0	-0.13	0	0.305	0	0	0
6.045	-52.775944	748.933533	110.704575	0.203298	0	-0.269349	1.70E-05	1.598897	9.00E-06	0	0	0	-0.13	0	0.305	0	0	0
6.046	-52.861008	748.933533	110.391296	0.203298	0	-0.268943	7.00E-06	1.620266	6.00E-06	0	0	0	-0.13	0	0.305	0	0	0
6.047	-53.011662	748.933533	110.391296	0.203298	0	-0.268348	7.00E-06	1.581544	1.00E-05	0	0	0	-0.13	0	0.305	0	0	0
6.048	-53.329559	749.284546	110.469788	0.203333	0	-0.268287	7.00E-06	1.581544	6.00E-06	0	0	0	-0.13	0	0.305	0	0	0
6.049	-53.329559	749.284546	110.470154	0.203443	0	-0.26748	7.00E-06	1.568896	5.00E-06	0	0	0	-0.13	0	0.305	0	0	0
6.05	-53.331726	750.979492	110.705223	0.203443	0	-0.26748	7.00E-06	1.568896	1.00E-06	0	0	0	-0.13	0	0.305	0	0	0
6.051	-53.576103	751.54425	110.470154	0.203456	0	-0.267068	1.00E-05	1.576235	5.00E-06	0	0	0	-0.13	0	0.305	0	0	0
6.052	-53.803162	751.54425	110.313736	0.203719	0	-0.266306	1.00E-05	1.576235	6.00E-06	0	0	0	-0.13	0	0.305	0	0	0
6.053	-53.887505	751.54425	110.313736	0.203754	0	-0.2662	4.00E-06	1.571579	7.00E-06	0	0	0	-0.13	0	0.305	0	0	0
6.054	-53.887505	751.885254	110.31369	0.204008	0	-0.265581	4.00E-06	1.552217	9.00E-06	0	0	0	-0.13	0	0.305	0	0	0
6.055	-53.814705	751.038574	110.000809	0.2041	0	-0.265191	9.00E-06	1.551586	9.00E-06	0	0	0	-0.13	0	0.305	0	0	0
6.056	-53.734688	751.038574	110.000809	0.20412	0	-0.264683	1.70E-05	1.552217	7.00E-06	0	0	0	-0.13	0	0.305	0	0	0
6.057	-53.347599	750.011475	110.157471	0.20421	0	-0.264422	2.60E-05	1.55939	1.00E-06	0	0	0	-0.13	0	0.305	0	0	0
6.058	-53.347599	749.836304	110.47084	0.20421	0	-0.264111	2.60E-05	1.627535	7.00E-06	0	0	0	-0.13	0	0.305	0	0	0
6.059	-53.355537	748.463135	110.54953	0.2043	0	-0.263525	1.70E-05	1.629349	9.00E-06	0	0	0	-0.13	0	0.305	0	0	0
6.06	-53.66983	748.463135	110.54953	0.204358	0	-0.263285	1.20E-05	1.629349	9.00E-06	0	0	0	-0.13	0	0.305	0	0	0
6.061	-53.66983	748.458618	110.54953	0.20446	0	-0.263282	6.00E-06	1.577464	9.00E-06	0	0	0	-0.13	0	0.305	0	0	0
6.062	-53.66983	748.471375	110.471405	0.20446	0	-0.261983	-8.00E-06	1.560825	9.00E-06	0	0	0	-0.13	0	0.305	0	0	0
6.063	-53.981953	747.800232	110.314857	0.20446	0	-0.261664	5.00E-06	1.545243	2.00E-06	0	0	0	-0.13	0	0.305	0	0	0
6.064	-54.147034	747.800232	110.314857	0.20457	0	-0.261148	-7.00E-06	1.536716	6.00E-06	0	0	0	-0.13	0	0.305	0	0	0
6.065	-54.297684	747.800232	110.628586	0.204797	0	-0.260427	0.00E+00	1.446575	6.00E-06	0	0	0	-0.13	0	0.305	0	0	0
6.066	-54.769119	748.324829	110.628586	0.204863	0	-0.260358	0	1.536716	6.00E-06	0	0	0	-0.13	0	0.305	0	0	0
6.067	-54.769119	748.838257	112.273972	0.204974	0	-0.25978	3.00E-06	1.416068	5.00E-06	0	0	0	-0.13	0	0.305	0	0	0
6.068	-54.462769	749.013062	112.509277	0.204974	0	-0.259548	1.50E-05	1.416068	5.00E-06	0	0	0	-0.13	0	0.305	0	0	0
6.069	-54.228493	749.020386	112.744476	0.204974	0	-0.259187	3.00E-06	1.416068	6.00E-06	0	0	0	-0.13	0	0.305	0	0	0
6.07	-54.228493	749.020386	113.214577	0.205124	0	-0.259166	2.00E-06	1.289277	1.20E-05	0	0	0	-0.13	0	0.305	0	0	0
6.071	-55.167755	749.179321	113.449768	0.204886	0	-0.258126	2.00E-06	1.435378	6.00E-06	0	0	0	-0.13	0	0.305	0	0	0
6.072	-55.167755	751.601318	113.606552	0.205124	0	-0.258007	1.20E-05	1.255231	6.00E-06	0	0	0	-0.13	0	0.305	0	0	0
6.073	-54.704262	751.960815	113.998199	0.205297	0	-0.257822	1.20E-05	1.255231	6.00E-06	0	0	0	-0.13	0	0.305	0	0	0
6.074	-54.704262	753.694641	113.998199	0.205341	0	-0.257776	1.60E-05	1.255231	1.00E-05	0	0	0	-0.13	0	0.305	0	0	0
6.075	-55.019993	753.694641	113.841827	0.205764	0	-0.257452	2.20E-05	1.308812	1.00E-05	0	0	0	-0.13	0	0.305	0	0	0
6.076	-55.411415	754.549072	113.841827	0.205688	0	-0.257049	2.20E-05	1.308812	7.00E-06	0	0	0	-0.13	0	0.305	0	0	0
6.077	-56.274269	756.283264	115.095596	0.205688	0	-0.25676	2.00E-05	1.292073	6.00E-06	0	0	0	-0.13	0	0.305	0	0	0
6.078	-56.274269	756.283264	115.095596	0.205688	0	-0.256274	0	1.237664	6.00E-06	0	0	0	-0.13	0	0.305	0	0	0
6.079	-55.965752	756.807129	115.017548	0.205686	0	-0.256274	0	1.237664	2.00E-06	0	0	0	-0.13	0	0.305	0	0	0
6.08	-55.885735	756.108154	115.017548	0.205689	0	-0.256051	0.00E+00	1.305685	6.00E-06	0	0	0	-0.13	0	0.305	0	0	0
6.081	-55.422237	757.137695	115.487808	0.205971	0	-0.255937	3.00E-06	1.349083	8.00E-06	0	0	0	-0.13	0	0.305	0	0	0
6.082	-55.422237	757.656128	115.644638	0.205971	0	-0.255524	3.00E-06	1.305685	8.00E-06	0	0	0	-0.13	0	0.305	0	0	0
6.083	-55.660843	757.656128	115.644836	0.20571	0	-0.255179	3.00E-06	1.349083	8.00E-06	0	0	0	-0.13	0	0.305	0	0	0
6.084	-55.660843	756.797974	116.193268	0.20571	0	-0.254735	1.10E-05	1.349602	9.00E-06	0	0	0	-0.13	0	0.305	0	0	0
6.085	-55.660843	755.785034	116.506508	0.205702	0	-0.254735	1.20E-05	1.370409	9.00E-06	0	0	0	-0.13	0	0.305	0	0	0
6.086	-57.854378	755.961426	117.4468	0.205421	0	-0.254735	1.10E-05	1.409899	7.00E-06	0	0	0	-0.13	0	0.305	0	0	0
6.087	-58.794365	755.961426	117.4468	0.205421	0	-0.253922	8.00E-06	1.409899	7.00E-06	0	0	0	-0.13	0	0.305	0	0	0
6.088	-58.794365	758.206299	117.4468	0.205919	0	-0.252941	8.00E-06	1.391239	7.00E-06	0	0	0	-0.13	0	0.305	0	0	0
6.089	-58.017296	759.226135	117.290665	0.205919	0	-0.252832	9.00E-06	1.391239	6.00E-06	7.76795	9.883382	21.792048	-0.152655	0	0.354152	0	1.439146	0
